<?xml version="1.0" encoding="UTF-8" standalone="no"?>
<!-- Generator: Adobe Illustrator 18.0.0, SVG Export Plug-In . SVG Version: 6.00 Build 0)  -->

<svg
   xmlns:dc="http://purl.org/dc/elements/1.1/"
   xmlns:cc="http://creativecommons.org/ns#"
   xmlns:rdf="http://www.w3.org/1999/02/22-rdf-syntax-ns#"
   xmlns:svg="http://www.w3.org/2000/svg"
   xmlns="http://www.w3.org/2000/svg"
   xmlns:sodipodi="http://sodipodi.sourceforge.net/DTD/sodipodi-0.dtd"
   xmlns:inkscape="http://www.inkscape.org/namespaces/inkscape"
   version="1.1"
   id="Capa_1"
   x="0px"
   y="0px"
   viewBox="0 0 131.413 131.413"
   style="enable-background:new 0 0 131.413 131.413;"
   xml:space="preserve"
   inkscape:version="0.91 r13725"
   sodipodi:docname="cutlery.svg"><metadata
     id="metadata3443"><rdf:RDF><cc:Work
         rdf:about=""><dc:format>image/svg+xml</dc:format><dc:type
           rdf:resource="http://purl.org/dc/dcmitype/StillImage" /></cc:Work></rdf:RDF></metadata><defs
     id="defs3441" /><sodipodi:namedview
     pagecolor="#ffffff"
     bordercolor="#666666"
     borderopacity="1"
     objecttolerance="10"
     gridtolerance="10"
     guidetolerance="10"
     inkscape:pageopacity="0"
     inkscape:pageshadow="2"
     inkscape:window-width="1920"
     inkscape:window-height="985"
     id="namedview3439"
     showgrid="false"
     inkscape:zoom="1.1017184"
     inkscape:cx="-12.012077"
     inkscape:cy="-0.057288073"
     inkscape:window-x="1920"
     inkscape:window-y="0"
     inkscape:window-maximized="1"
     inkscape:current-layer="g3391" /><g
     id="g3391"><circle
       style="fill:#F26C25;"
       cx="65.707"
       cy="65.707"
       r="65.706"
       id="circle3393" /><g
       id="g3395"
       transform="matrix(1.1874252,0,0,1.0645394,-13.903217,-8.1457368)"><path
         style="fill:#ffffff"
         d="m 39.132812,23.513672 c -0.185,0 -0.343859,0.148375 -0.380859,0.359375 -0.189,1.05 -4.646672,25.721922 -2.263672,29.794922 1.546,2.646 3.603953,4.352844 6.126953,5.089843 l -2.30664,51.710938 c 0,0.019 -4.7e-5,0.0376 0.002,0.0566 -0.002,0.019 -0.002,0.0338 -0.002,0.0508 0,2.567 1.811062,4.66211 4.039062,4.66211 l 0.712891,0 0,-0.002 0.134765,0 0.851563,0 c 2.226,0 4.035156,-2.09316 4.035156,-4.66016 0,-0.017 -9.06e-4,-0.0318 -0.0039,-0.0508 0.003,-0.019 0.0049,-0.0396 0.0039,-0.0586 l -2.30664,-51.708988 c 2.523,-0.737 4.583953,-2.445796 6.126953,-5.091796 2.384,-4.072 -2.070766,-28.742969 -2.259766,-29.792969 -0.04,-0.211 -0.196859,-0.359375 -0.380859,-0.359375 l -0.994141,0 c -0.214,0 -0.388672,0.207172 -0.388672,0.451172 l 0,24.832031 c 0.029,0.332 -0.21339,0.480469 -0.52539,0.480469 -0.332,0 -0.664063,-0.118469 -0.664063,-0.480469 0,-1.181 -0.441937,-23.872844 -0.460937,-24.839844 -0.004,-0.245 -0.177625,-0.443359 -0.390625,-0.443359 l -1.47461,0 c -0.212,0 -0.383672,0.202266 -0.388672,0.447266 0,0.233 -0.216796,23.330937 -0.216797,24.835937 0,0.182 -0.04119,0.311719 -0.117187,0.386719 -0.071,0.071 -0.189125,0.113281 -0.328125,0.113281 -0.04,0 -0.07919,-0.0037 -0.117188,-0.01172 -0.039,0.008 -0.07823,0.01172 -0.115234,0.01172 -0.007,0 -0.01253,-0.0078 -0.01953,-0.0078 -0.128,-0.004 -0.239641,-0.03847 -0.306641,-0.105468 -0.08,-0.075 -0.11914,-0.204719 -0.11914,-0.386719 0,-1.505 -0.215797,-24.601938 -0.216797,-24.835937 -0.002,-0.245001 -0.175625,-0.447266 -0.390625,-0.447266 l -1.47461,0 c -0.21,0 -0.384671,0.198359 -0.388672,0.443359 -0.019,0.967 -0.46289,23.658844 -0.46289,24.839844 0,0.361 -0.202203,0.513672 -0.533203,0.513672 -0.312,0 -0.64325,-0.09567 -0.65625,-0.513672 l 0,-24.832031 c 0,-0.244 -0.171719,-0.451172 -0.386719,-0.451172 l -0.992188,0 z"
         id="path3397"
         inkscape:connector-curvature="0" /><path
         style="fill:#ffffff"
         d="m 68.800781,18.804688 c -0.926763,0.119087 -2.5245,1.926656 -3.351562,3.628906 -0.047,0.097 -0.109016,0.221844 -0.166016,0.339844 -1.419,2.923999 -5.990234,12.486812 -5.990234,23.507812 l 0,13.978516 c 0,4.92 5.189453,2.664546 5.189453,9.685546 l -2.371094,45.941408 0.0098,0 c -0.002,0.025 -0.0098,0.0502 -0.0098,0.0762 0,1.925 1.360875,3.52439 3.171875,3.90039 l 0,0.002 c 0.265,0.057 0.539313,0.0859 0.820313,0.0859 l 1.523437,0 c 2.201,0 3.988281,-1.78733 3.988281,-3.98633 0,-0.029 -0.0078,-0.0552 -0.0078,-0.0762 l 0.01367,0 0,-0.002 -1.949219,-48.443361 0.0039,0 c 0,0 -0.162109,-43.813937 -0.162109,-47.585937 -0.0088,-0.81125 -0.291635,-1.106865 -0.712891,-1.052734 z"
         id="path3401"
         inkscape:connector-curvature="0" /><path
         style="fill:#ffffff"
         d="m 85.3125,24.849609 c -0.096,0 -0.189156,0.01848 -0.285156,0.02148 l 0,89.031241 1.09375,0 c 2.332,0 4.216797,-1.88889 4.216797,-4.21289 0,-0.034 -0.0058,-0.058 -0.0098,-0.084 l 0.0098,0 -2.703125,-52.066403 c 0,0 2.646828,-0.968421 2.673828,-0.982421 4.627,-2.036 7.990234,-8.039079 7.990234,-15.830079 0,-8.493999 -6.59675,-15.816953 -12.96875,-15.876953 l -0.0098,0 -0.0078,0 z m -0.287109,0.02148 c -6.285,0.273 -12.679688,7.482469 -12.679688,15.855468 0,7.788001 3.360469,13.792172 7.980469,15.826172 0.481,0.237 2.660156,0.953125 2.660156,0.953125 l -2.685547,52.099616 0.0078,0 c 0,0.026 -0.0078,0.0569 -0.0078,0.0859 0,2.32899 1.885797,4.21093 4.216797,4.21093 l 0.507813,0 0,-89.031251 z"
         id="path3405"
         inkscape:connector-curvature="0" /></g></g><g
     id="g3409" /><g
     id="g3411" /><g
     id="g3413" /><g
     id="g3415" /><g
     id="g3417" /><g
     id="g3419" /><g
     id="g3421" /><g
     id="g3423" /><g
     id="g3425" /><g
     id="g3427" /><g
     id="g3429" /><g
     id="g3431" /><g
     id="g3433" /><g
     id="g3435" /><g
     id="g3437" /></svg>